<svg width="32" height="32" viewBox="0 0 32 32" fill="none" xmlns="http://www.w3.org/2000/svg">
<path d="M3.54778 32H7.11889V28.4315H10.6667V24.8863H14.2144V21.3411H17.7856V24.8863H21.3333V28.4315H24.9045V32H28.4522V28.4315H32V24.8863H28.4522V21.3411H24.9045V17.7726H21.3333V14.2274H24.9045V10.6822H28.4522V7.1137H32V3.56851H28.4522V0H24.9045V3.56851H21.3333V7.1137H17.7856V10.6822H14.2144V7.1137H10.6667V3.56851H7.11889V0H3.54778V3.56851H0V7.1137H3.54778V10.6822H7.11889V14.2274H10.6667V17.7726H7.11889V21.3411H3.54778V24.8863H0V28.4315H3.54778V32Z" fill="white"/>
</svg>
