<svg width="32" height="32" viewBox="0 0 32 32" fill="none" xmlns="http://www.w3.org/2000/svg">
<g clip-path="url(#clip0_1128_6464)">
<path d="M28.952 4.575H27.432V30.475H28.952V4.575Z" fill="white"/>
<path d="M27.432 3.045H25.902V4.575H27.432V3.045Z" fill="white"/>
<path d="M25.902 1.52499H24.382V3.04499H25.902V1.52499Z" fill="white"/>
<path d="M25.9 7.615H24.38V6.1H22.86V4.575H21.33V3.045H3.052V32H25.9V7.615ZM24.38 30.475H4.572V4.575H18.282V10.665H24.382L24.38 30.475Z" fill="white"/>
<path d="M24.382 -0.00500488H4.57202V1.525H24.382V-0.00500488Z" fill="white"/>
<path d="M21.3319 25.905H7.62195V27.425H21.3319V25.905Z" fill="white"/>
<path d="M21.3319 19.805H7.62195V21.335H21.3319V19.805Z" fill="white"/>
<path d="M21.3319 13.715H7.62195V15.235H21.3319V13.715Z" fill="white"/>
<path d="M13.7119 7.61499H7.62195V9.14499H13.7119V7.61499Z" fill="white"/>
</g>
<defs>
<clipPath id="clip0_1128_6464">
<rect width="32" height="32" fill="white"/>
</clipPath>
</defs>
</svg>
