<svg width="34" height="34" viewBox="0 0 34 34" fill="none" xmlns="http://www.w3.org/2000/svg">
<g clip-path="url(#clip0_1128_12374)">
<path d="M1.74173 30.6992L3.27173 30.7013L3.30365 7.84136L1.77365 7.83922L1.74173 30.6992Z" fill="white"/>
<path d="M7.88218 1.74774L7.88004 3.27774L6.36004 3.27562L6.35578 6.32562L3.30578 6.32136L3.30366 7.84136L26.1636 7.87328L26.1658 6.35328L24.6358 6.35114L24.6379 4.82114L23.1179 4.81902L23.1158 6.34902L20.0658 6.34476L20.0679 4.81476L18.5479 4.81264L18.5458 6.34264L15.4958 6.33838L15.4979 4.80838L13.9779 4.80626L13.9758 6.33626L10.9258 6.332L10.9279 4.802L9.39792 4.79986L9.39578 6.32986L7.87578 6.32774L7.87792 4.79774L9.39792 4.79986L9.40004 3.27986L12.45 3.28412L12.4479 4.80412L13.9779 4.80626L13.98 3.28626L17.02 3.2905L17.0179 4.8105L18.5479 4.81264L18.55 3.29264L21.59 3.29689L21.5879 4.81688L23.1179 4.81902L23.12 3.29902L26.17 3.30328L26.1679 4.82328L27.6879 4.8254L27.69 3.3054L30.74 3.30966L30.7422 1.77966L7.88218 1.74774Z" fill="white"/>
<path d="M3.26965 32.2213L26.1296 32.2533L26.1318 30.7333L3.27178 30.7013L3.26965 32.2213Z" fill="white"/>
<path d="M27.6858 6.3554L29.2058 6.35752L29.2079 4.82753L27.6879 4.8254L27.6858 6.3554Z" fill="white"/>
<path d="M29.2057 6.35752L29.2036 7.87752L30.7336 7.87966L30.7293 10.9297L29.1993 10.9275L29.1972 12.4475L30.7272 12.4497L30.723 15.4997L29.193 15.4975L29.1908 17.0175L30.7208 17.0197L30.7166 20.0696L29.1866 20.0675L29.1845 21.5875L30.7145 21.5896L30.7102 24.6396L29.1802 24.6375L29.1781 26.1675L27.6581 26.1654L27.6602 24.6354L29.1802 24.6375L29.1823 23.1175L27.6623 23.1154L27.6666 20.0654L29.1866 20.0675L29.1887 18.5475L27.6687 18.5454L27.673 15.4954L29.193 15.4975L29.1951 13.9675L27.6751 13.9654L27.6793 10.9254L29.1993 10.9275L29.2015 9.39752L27.6815 9.3954L27.6836 7.8754L26.1636 7.87328L26.1317 30.7333L27.6517 30.7354L27.6559 27.6854L30.7059 27.6896L30.7081 26.1696L32.2281 26.1718L32.26 3.31178L30.74 3.30966L30.7357 6.35966L29.2057 6.35752Z" fill="white"/>
</g>
<defs>
<clipPath id="clip0_1128_12374">
<rect width="32" height="32" fill="white" transform="translate(32.9785 33.0228) rotate(-179.92)"/>
</clipPath>
</defs>
</svg>
