<svg width="32" height="32" viewBox="0 0 32 32" fill="none" xmlns="http://www.w3.org/2000/svg">
<path d="M28.9551 15.235H27.4351V12.185H25.9051V10.665H24.3851V9.145H22.8551V7.615H21.3351V6.095H19.8151V4.575H16.7651V3.045H12.1951V1.525H3.05505V4.575H12.1951V6.095H16.7651V7.615H19.8151V9.145H21.3351V10.665H22.8551V12.185H24.3851V15.235H25.9051V19.805H27.4351V28.955H30.4751V19.805H28.9551V15.235Z" fill="white"/>
<path d="M3.05505 7.615V10.665H10.6651V12.185H13.7151V13.715H16.7651V15.235H18.2851V18.285H19.8151V21.335H21.3351V28.955H24.3851V21.335H22.8551V18.285H21.3351V15.235H19.8151V13.715H18.2851V12.185H16.7651V10.665H13.7151V9.145H10.6651V7.615H3.05505Z" fill="white"/>
<path d="M3.05505 16.765H9.14505V18.285H12.1951V19.805H13.7151V22.855H15.2451V28.955H18.2851V22.855H16.7651V19.805H15.2451V18.285H13.7151V16.765H12.1951V15.235H9.14505V13.715H3.05505V16.765Z" fill="white"/>
<path d="M3.05502 24.375H1.52502V28.955H3.05502V30.475H7.62502V28.955H9.14502V24.375H7.62502V22.855H3.05502V24.375Z" fill="white"/>
</svg>
